<?xml version="1.0" standalone="no"?>
<!DOCTYPE svg PUBLIC "-//W3C//DTD SVG 20010904//EN"
 "http://www.w3.org/TR/2001/REC-SVG-20010904/DTD/svg10.dtd">
<svg version="1.0" xmlns="http://www.w3.org/2000/svg"
 width="647.000000pt" height="647.000000pt" viewBox="0 0 647.000000 647.000000"
 preserveAspectRatio="xMidYMid meet">
<metadata>
Created by potrace 1.14, written by Peter Selinger 2001-2017
</metadata>
<g transform="translate(0.000000,647.000000) scale(0.100000,-0.100000)"
fill="#000000" stroke="none">
<path d="M3157 4634 c-1 -1 -27 -5 -57 -9 -86 -10 -227 -61 -313 -113 -256
-153 -409 -421 -411 -717 -1 -255 88 -461 275 -636 l77 -72 -44 -74 c-24 -41
-44 -76 -44 -78 0 -3 -13 -26 -30 -52 -16 -26 -30 -52 -30 -58 0 -6 16 -19 35
-28 l34 -16 25 42 c68 120 446 775 493 856 30 51 58 89 63 85 4 -5 119 -202
255 -439 136 -236 263 -456 282 -487 l34 -58 29 15 c16 8 31 19 34 24 3 4 -28
68 -70 140 l-75 132 28 22 c63 48 161 160 205 234 49 80 94 194 104 260 3 21
7 45 10 55 11 37 5 238 -9 304 -71 335 -369 613 -707 659 -51 7 -188 14 -193
9z m242 -104 c201 -53 361 -167 466 -330 79 -123 112 -225 121 -370 15 -222
-67 -432 -231 -593 -37 -37 -71 -67 -75 -67 -4 0 -108 173 -230 385 -122 212
-224 385 -225 385 -4 0 -105 -169 -105 -175 0 -2 -17 -32 -38 -66 -22 -35 -50
-84 -64 -109 -14 -25 -58 -101 -98 -170 -40 -69 -88 -152 -107 -185 -19 -33
-36 -62 -39 -64 -8 -9 -120 97 -162 154 -39 52 -58 87 -113 210 -25 57 -38
156 -35 270 2 66 6 131 9 144 55 218 186 393 380 504 151 88 382 120 546 77z"/>
<path d="M2861 3060 l-21 -38 65 -26 c199 -80 427 -81 625 -4 30 11 59 24 63
29 5 4 1 23 -8 43 -14 29 -20 34 -35 26 -21 -11 -91 -35 -145 -49 -153 -39
-338 -25 -479 38 l-44 19 -21 -38z"/>
<path d="M1212 2317 c-5 -7 -23 -41 -40 -77 -16 -36 -64 -138 -106 -228 -42
-90 -76 -168 -76 -173 0 -9 41 -6 59 5 5 4 21 31 35 61 l25 55 113 0 c62 0
118 -4 124 -8 6 -4 21 -30 34 -59 22 -51 49 -70 76 -55 10 6 3 29 -30 97 -23
50 -73 156 -110 237 -67 144 -85 169 -104 145z m57 -182 c61 -131 65 -120 -37
-120 -55 0 -87 4 -87 11 0 11 78 194 83 194 1 0 20 -38 41 -85z"/>
<path d="M3176 2319 c-54 -13 -93 -43 -106 -84 -24 -74 15 -131 115 -166 117
-41 155 -68 155 -110 0 -33 -37 -66 -84 -74 -39 -8 -112 19 -127 46 -11 21
-69 27 -69 8 0 -22 33 -65 63 -83 18 -10 59 -21 93 -23 75 -7 145 20 167 64
43 81 12 154 -80 188 -151 55 -196 91 -172 137 30 56 129 61 183 9 57 -55 100
-33 56 29 -36 50 -120 76 -194 59z"/>
<path d="M1758 2315 c-2 -3 -2 -435 1 -471 1 -6 14 -9 31 -6 l30 4 0 93 0 93
84 0 c80 0 146 13 174 35 43 34 56 120 27 181 -26 55 -69 69 -217 72 -69 1
-128 1 -130 -1z m261 -70 c46 -23 55 -88 17 -131 -22 -26 -27 -28 -117 -28
l-94 -1 -3 88 -3 87 86 0 c56 0 96 -5 114 -15z"/>
<path d="M2430 2080 c0 -249 1 -253 43 -242 15 4 18 14 17 51 -1 25 -1 67 -1
92 l1 46 85 1 c102 1 154 14 182 44 42 46 48 129 12 186 -27 42 -74 55 -211
58 l-128 2 0 -238z m281 151 c26 -32 24 -84 -5 -118 -23 -26 -28 -27 -117 -28
l-94 0 -3 88 -3 89 101 -4 c93 -3 104 -5 121 -27z"/>
<path d="M3650 2288 l0 -28 79 0 79 0 -2 -210 -1 -210 33 0 32 0 0 210 c0 161
3 210 13 211 6 0 40 0 75 -1 37 -1 62 3 63 9 6 49 17 46 -184 46 l-187 0 0
-27z"/>
<path d="M4322 2311 c-11 -6 -13 -46 -10 -177 4 -192 14 -228 77 -270 71 -47
202 -42 260 10 52 46 64 95 64 276 l0 165 -29 0 -29 0 -5 -175 c-3 -115 -9
-183 -18 -197 -14 -25 -58 -51 -94 -56 -36 -6 -101 12 -125 35 -31 29 -37 63
-37 237 -1 146 -2 154 -21 157 -11 2 -26 -1 -33 -5z"/>
<path d="M5045 2084 c0 -132 3 -241 7 -244 4 -3 62 -5 128 -3 166 4 222 29
271 122 18 35 22 60 22 115 -1 84 -20 134 -69 180 -47 45 -97 58 -239 63
l-120 5 0 -238z m262 161 c49 -21 71 -42 90 -85 23 -55 20 -130 -8 -181 -35
-64 -84 -86 -196 -88 l-88 -2 1 183 c1 101 2 184 3 186 4 10 168 -1 198 -13z"/>
</g>
</svg>
